<svg width="152" height="25" viewBox="0 0 152 25" fill="none" xmlns="http://www.w3.org/2000/svg">
<path d="M15.3778 5.23645C15.21 5.50524 15.034 5.70643 14.8498 5.84082C14.6655 5.97522 14.4278 6.042 14.1375 6.042C13.8809 6.042 13.6045 5.96122 13.3084 5.79879C13.0123 5.63637 12.6775 5.45496 12.3033 5.25296C11.929 5.05178 11.5021 4.86955 11.0218 4.70712C10.5414 4.54469 9.99444 4.46391 9.38002 4.46391C8.31897 4.46391 7.52934 4.69066 7.00951 5.14414C6.4905 5.59762 6.23059 6.21021 6.23059 6.98278C6.23059 7.47584 6.38686 7.88398 6.69942 8.20884C7.01198 8.5337 7.42241 8.81318 7.93073 9.04816C8.43904 9.28315 9.01976 9.4992 9.67284 9.69461C10.3259 9.89084 10.993 10.1085 11.6748 10.3493C12.3559 10.59 13.023 10.8728 13.6769 11.1968C14.3299 11.5217 14.9106 11.9356 15.4189 12.4394C15.9273 12.9432 16.3377 13.5558 16.6503 14.2781C16.9628 15.0003 17.1191 15.8702 17.1191 16.8893C17.1191 18.0197 16.9233 19.0775 16.5326 20.0628C16.1419 21.0481 15.5752 21.9072 14.8325 22.6402C14.0898 23.3732 13.1743 23.9496 12.0853 24.3701C10.9963 24.7897 9.76002 25 8.3749 25C7.61571 25 6.84255 24.9217 6.0554 24.765C5.26825 24.6084 4.50577 24.3874 3.76879 24.1021C3.03181 23.8168 2.33925 23.478 1.69193 23.0863C1.04378 22.6947 0.480351 22.2577 0 21.777L1.67466 19.1237C1.79721 18.9225 1.97075 18.7601 2.19365 18.6364C2.41656 18.5136 2.65673 18.4517 2.91418 18.4517C3.24895 18.4517 3.58701 18.5581 3.92753 18.7708C4.26805 18.9836 4.653 19.2185 5.08318 19.4758C5.51253 19.7338 6.00687 19.9688 6.56536 20.1807C7.12385 20.3934 7.78269 20.4998 8.54187 20.4998C9.5692 20.4998 10.3679 20.2731 10.937 19.8196C11.5062 19.3661 11.7916 18.6471 11.7916 17.6619C11.7916 17.0913 11.6354 16.6263 11.3228 16.2684C11.0102 15.9106 10.5998 15.6138 10.0915 15.3788C9.58317 15.1438 9.00495 14.9368 8.35763 14.7571C7.71031 14.5782 7.04571 14.3795 6.36467 14.161C5.68362 13.9425 5.01901 13.6737 4.37168 13.3554C3.72354 13.0363 3.14614 12.6167 2.63783 12.0964C2.12951 11.5761 1.71907 10.9272 1.40652 10.1489C1.09396 9.37138 0.937664 8.41083 0.937664 7.26971C0.937664 6.35203 1.12193 5.4566 1.49042 4.58344C1.8589 3.71029 2.40012 2.93277 3.11489 2.24925C3.82966 1.56655 4.70646 1.02076 5.74448 0.612626C6.78333 0.204493 7.97186 0 9.31256 0C10.0602 0 10.789 0.0585516 11.4988 0.176457C12.2078 0.294362 12.8807 0.467474 13.5173 0.696688C14.1539 0.925902 14.7486 1.2005 15.3013 1.51959C15.8541 1.83867 16.3484 2.1998 16.7835 2.60216L15.3778 5.23645Z" fill="#F15A29"/>
<path d="M30.6201 20.2477C31.3793 20.2477 32.0579 20.1215 32.655 19.87C33.2522 19.6177 33.758 19.2575 34.1709 18.7867C34.5838 18.3167 34.8997 17.7428 35.1176 17.0659C35.3356 16.389 35.4442 15.6189 35.4442 14.7573V0.266479H41.1056V14.7573C41.1056 16.257 40.8629 17.634 40.3768 18.8881C39.8907 20.1422 39.1957 21.2222 38.2917 22.1284C37.387 23.0353 36.2872 23.7403 34.9918 24.2441C33.6963 24.7479 32.2388 24.9993 30.6201 24.9993C28.9899 24.9993 27.5266 24.7479 26.2311 24.2441C24.9356 23.7403 23.836 23.0353 22.9312 22.1284C22.0264 21.2214 21.3338 20.1413 20.8543 18.8881C20.374 17.6348 20.1338 16.2579 20.1338 14.7573V0.266479H25.7952V14.74C25.7952 15.6024 25.9038 16.3717 26.1217 17.0486C26.3397 17.7263 26.6547 18.3027 27.0685 18.7784C27.4814 19.2541 27.9872 19.6177 28.5844 19.87C29.1823 20.1215 29.8609 20.2477 30.6201 20.2477Z" fill="#F15A29"/>
<path d="M50.9876 15.6805V24.7312H45.3262V0.26709H53.2659C55.0302 0.26709 56.5347 0.449316 57.78 0.812926C59.0252 1.17654 60.041 1.68362 60.8282 2.33251C61.6153 2.9814 62.1878 3.74902 62.5448 4.63289C62.9018 5.51759 63.0811 6.47978 63.0811 7.52114C63.0811 8.31597 62.975 9.06627 62.7627 9.77123C62.5505 10.4762 62.2347 11.1284 61.816 11.7278C61.3974 12.3264 60.8833 12.8615 60.2746 13.3315C59.666 13.8015 58.9652 14.1881 58.1723 14.4899C58.5515 14.6804 58.9068 14.9154 59.2358 15.1949C59.5648 15.4752 59.8527 15.8166 60.0986 16.2189L65.2912 24.732H60.1661C59.2169 24.732 58.5358 24.3742 58.1221 23.6577L54.0687 16.5553C53.8902 16.242 53.6805 16.0178 53.4403 15.8834C53.2001 15.749 52.8621 15.6821 52.427 15.6821H50.9876V15.6805ZM50.9876 11.7682H53.2659C54.0366 11.7682 54.6922 11.6701 55.2342 11.4747C55.7755 11.2793 56.2196 11.0072 56.5659 10.6601C56.9122 10.313 57.1631 9.90728 57.3193 9.44308C57.4756 8.97888 57.5538 8.47758 57.5538 7.94C57.5538 6.86566 57.205 6.0255 56.5067 5.42113C55.8084 4.81676 54.7284 4.51417 53.2659 4.51417H50.9876V11.7682V11.7682Z" fill="#F15A29"/>
<path d="M99.5374 20.1974H108.583V24.7305H93.876V0.266479H99.5374V20.1974Z" fill="#F15A29"/>
<path d="M121.949 20.2477C122.708 20.2477 123.387 20.1215 123.984 19.87C124.581 19.6177 125.086 19.2575 125.5 18.7867C125.913 18.3167 126.229 17.7428 126.446 17.0659C126.664 16.389 126.772 15.6189 126.772 14.7573V0.266479H132.434V14.7573C132.434 16.257 132.191 17.634 131.705 18.8881C131.219 20.1422 130.524 21.2222 129.62 22.1284C128.715 23.0353 127.616 23.7403 126.32 24.2441C125.025 24.7479 123.567 24.9993 121.948 24.9993C120.318 24.9993 118.855 24.7479 117.56 24.2441C116.265 23.7403 115.165 23.0353 114.26 22.1284C113.356 21.2214 112.663 20.1413 112.183 18.8881C111.703 17.6348 111.463 16.2579 111.463 14.7573V0.266479H117.124V14.74C117.124 15.6024 117.233 16.3717 117.451 17.0486C117.669 17.7263 117.984 18.3027 118.398 18.7784C118.81 19.2541 119.316 19.6177 119.913 19.87C120.511 20.1215 121.19 20.2477 121.949 20.2477Z" fill="#F15A29"/>
<path d="M150.257 5.23645C150.089 5.50524 149.914 5.70643 149.73 5.84082C149.546 5.97522 149.309 6.042 149.018 6.042C148.761 6.042 148.485 5.96122 148.189 5.79879C147.893 5.63637 147.558 5.45496 147.184 5.25296C146.81 5.05178 146.383 4.86955 145.903 4.70712C145.422 4.54469 144.875 4.46391 144.261 4.46391C143.2 4.46391 142.41 4.69066 141.891 5.14414C141.372 5.59762 141.112 6.21021 141.112 6.98278C141.112 7.47584 141.269 7.88398 141.581 8.20884C141.894 8.5337 142.304 8.81318 142.812 9.04816C143.321 9.28315 143.901 9.4992 144.555 9.69461C145.208 9.89084 145.875 10.1085 146.556 10.3493C147.237 10.59 147.904 10.8728 148.558 11.1968C149.211 11.5217 149.791 11.9356 150.3 12.4394C150.808 12.9432 151.219 13.5558 151.531 14.2781C151.844 15.0003 152 15.8702 152 16.8893C152 18.0197 151.804 19.0775 151.414 20.0628C151.023 21.0481 150.456 21.9072 149.713 22.6402C148.971 23.3732 148.055 23.9496 146.966 24.3701C145.877 24.7897 144.641 25 143.256 25C142.497 25 141.723 24.9217 140.936 24.765C140.149 24.6084 139.387 24.3874 138.65 24.1021C137.913 23.8168 137.22 23.478 136.573 23.0863C135.925 22.6947 135.361 22.2577 134.881 21.777L136.556 19.1237C136.678 18.9225 136.852 18.7601 137.075 18.6364C137.297 18.5136 137.538 18.4517 137.795 18.4517C138.13 18.4517 138.468 18.5581 138.808 18.7708C139.149 18.9836 139.534 19.2185 139.964 19.4758C140.393 19.7338 140.888 19.9688 141.446 20.1807C142.005 20.3934 142.663 20.4998 143.423 20.4998C144.45 20.4998 145.249 20.2731 145.818 19.8196C146.388 19.3661 146.673 18.6471 146.673 17.6619C146.673 17.0913 146.516 16.6263 146.204 16.2684C145.891 15.9106 145.481 15.6138 144.972 15.3788C144.464 15.1438 143.886 14.9368 143.239 14.7571C142.59 14.5782 141.926 14.3795 141.245 14.161C140.564 13.9425 139.899 13.6737 139.252 13.3554C138.604 13.0363 138.026 12.6167 137.518 12.0964C137.01 11.5761 136.599 10.9272 136.287 10.1489C135.974 9.37138 135.818 8.41083 135.818 7.26971C135.818 6.35203 136.002 5.4566 136.37 4.58344C136.739 3.71029 137.28 2.93277 137.995 2.24925C138.71 1.56655 139.587 1.02076 140.625 0.612626C141.663 0.204493 142.852 0 144.193 0C144.94 0 145.669 0.0585516 146.379 0.176457C147.088 0.294362 147.761 0.467474 148.397 0.696688C149.034 0.925902 149.629 1.2005 150.181 1.51959C150.734 1.83867 151.228 2.1998 151.664 2.60216L150.257 5.23645Z" fill="#F15A29"/>
<path d="M82.5353 11.7684H77.6273V7.19484L71.947 1.83386V11.7684H65.2451V15.7022H71.947V24.7306H77.6273V15.7022H86.7301L82.5353 11.7684Z" fill="#F15A29"/>
<path d="M80.5557 4.514C81.2705 4.514 81.8874 4.60385 82.4064 4.78277C82.9254 4.96169 83.3556 5.21646 83.6961 5.54709C84.0366 5.87772 84.2908 6.27187 84.4586 6.73112C84.6264 7.19037 84.7095 7.6999 84.7095 8.25892C84.7095 9.20216 84.5293 9.98956 84.1699 10.6211L88.0045 14.2259C88.8089 13.4987 89.3945 12.6354 89.7852 11.6172C90.1759 10.5989 90.3717 9.4792 90.3717 8.25892C90.3717 7.12852 90.1817 6.07646 89.8025 5.10271C89.4225 4.12896 88.8336 3.28384 88.0357 2.56734C87.2371 1.85084 86.2213 1.2885 84.9875 0.879547C83.7537 0.471414 82.2765 0.266921 80.5574 0.266921L73.1465 0.239746L77.5519 4.48763L80.5557 4.514Z" fill="black"/>
</svg>
